
        <svg xmlns="http://www.w3.org/2000/svg" xmlns:xlink="http://www.w3.org/1999/xlink" version="1.1" width="3300" height="760.67865506261" viewBox="0 -15 3300 760.67865506261">
			
			<g transform="scale(15) translate(10, 10)">
				<defs id="SvgjsDefs3580"/><g id="SvgjsG3581" featureKey="aMgJeN-0" transform="matrix(9.603074226337716,0,0,9.603074226337716,1.9923155789313665,-10.15173039709062)" fill="#fff"><g xmlns="http://www.w3.org/2000/svg"><g><polygon points="2.499,1.705 4.062,2.605 4.062,1.854 2.498,0.953 0.938,1.855 0.938,2.607   "/></g><g><polygon points="3.812,3.51 4.062,3.363 4.062,2.902 2.498,2 0.938,2.902 0.938,3.365 1.188,3.51 2.498,2.752       "/></g><g><polygon points="2.499,3.818 2.896,4.047 3.548,3.672 2.498,3.066 1.452,3.672 2.104,4.047   "/></g></g></g><g id="SvgjsG3582" featureKey="8L6ael-0" transform="matrix(1.5463519808505548,0,0,1.5463519808505548,46.90729603829889,-5.2781111477452445)" fill="#fff"><path d="M3.5 20 l-1.5 0 l0 -14 l9.1 0 l0 0.9 l-0.4 0.4 l-7.2 0 l0 5.6 l5.6 0 l0 1.3 l-5.6 0 l0 5.8 z M14.6575 6 l1.5 0 l0 12.7 l7.5 0 l0 1.3 l-9 0 l0 -14 z M33.615 20.2 l-3 0 c-2.1 0 -3.5 -1.4 -3.5 -3.3 l0 -10.9 l1.5 0 l0 10.9 c0 1.1 0.9 2 2 2 l3 0 c1.1 0 2 -0.9 2 -2 l0 -10.9 l1.5 0 l0 10.9 c0 1.9 -1.4 3.3 -3.5 3.3 z M42.472500000000004 20 l0 -14 l9.1 0 l0 0.9 l-0.4 0.4 l-7.2 0 l0 4.9 l5.7 0 l0 1.3 l-5.7 0 l0 5.2 l7.6 0 l0 1.3 l-9.1 0 z M63.730000000000004 20 l-6.8 -11.5 l-0.1 0 l0.2 2.6 l0 8.9 l-1.5 0 l0 -14 l1.6 0 l6.8 11.5 l0.1 0 l-0.2 -2.6 l0 -8.9 l1.5 0 l0 14 l-1.6 0 z M74.7875 7.300000000000001 l0 12.7 l-1.5 0 l0 -12.7 l-4.4 0 l0 -1.3 l10.3 0 l0 0.9 l-0.4 0.4 l-4 0 z M84.245 20 l-1.5 0 l0 -14 l1.5 0 l0 14 z M93.4025 11.8 l0.1 0 l3.6 -5.8 l1.5 0 l0 0.6 l-4 6.2 l4.4 6.6 l0 0.6 l-1.5 0 l-4 -6.1 l-0.1 0 l-4 6.1 l-1.5 0 l0 -0.6 l4.4 -6.6 l-4 -6.2 l0 -0.6 l1.5 0 z"/></g>
			</g>
		</svg>
	